<svg xmlns="http://www.w3.org/2000/svg" xmlns:xlink="http://www.w3.org/1999/xlink" viewBox="0 0 300 100">
  <defs>
    <!-- Filter cho hiệu ứng phát sáng -->
    <filter id="glow" x="-20%" y="-20%" width="140%" height="140%">
      <feGaussianBlur stdDeviation="2" result="blur" />
      <feComposite in="SourceGraphic" in2="blur" operator="over" />
    </filter>
    
    <!-- Filter cho hiệu ứng làm rõ chi tiết của Java logo -->
    <filter id="detailGlow" x="-10%" y="-10%" width="120%" height="120%">
      <feGaussianBlur stdDeviation="1" result="blur" />
      <feFlood flood-color="#ffffff" flood-opacity="0.7" result="glowColor"/>
      <feComposite in="glowColor" in2="blur" operator="in" result="softGlow"/>
      <feComposite in="SourceGraphic" in2="softGlow" operator="over"/>
    </filter>
    
    <!-- Gradient cho text -->
    <linearGradient id="textGradient" x1="0%" y1="0%" x2="100%" y2="100%">
      <stop offset="0%" stop-color="#f5f5f5" />
      <stop offset="100%" stop-color="#e0e0e0" />
    </linearGradient>
    
    <!-- Gradient cho accent -->
    <linearGradient id="accentGradient" x1="0%" y1="0%" x2="100%" y2="100%">
      <stop offset="0%" stop-color="#64ffda" />
      <stop offset="100%" stop-color="#00e5ff" />
    </linearGradient>
  </defs>
  
  <!-- Java Official Logo với hiệu ứng tỏa sáng chi tiết -->
  <g filter="url(#detailGlow)" transform="translate(0, 5) scale(0.7)">
    <!-- Cup -->
    <path d="M28.4,37.2c0,0,3.8,2.3,9.9,2.3c6.1,0,10.4-2.2,10.4-2.2s-5.8,8.4-20.6,0.2L28.4,37.2z" fill="#5382A1" stroke="#ffffff" stroke-width="0.7"/>
    <path d="M23.3,60.9c0,0,5.3,4.4,12.7,4.4c7.4,0,15.8-2.3,20.9-6.5c5.1-4.1,7.4-9.9,7.4-9.9s-4.2,7.7-13.7,10.8 c-9.5,3.1-14.3,2.8-22.4,0L23.3,60.9z" fill="#5382A1" stroke="#ffffff" stroke-width="0.7"/>
    <path d="M53.9,31.4c3.1-3.4,2-6.6,2-6.6s0.8,2.5-1.3,5.8c-2.1,3.3-3.6,4.9-8.7,6.6c-5.1,1.7-7.8,1.7-7.8,1.7 S42,44.6,53.9,31.4z" fill="#5382A1" stroke="#ffffff" stroke-width="0.7"/>
    <path d="M71.5,60.7c0,0,2.3,1.9-2.6,3.5c-9.3,2.9-38.6,3.7-46.7,0.1c-2.9-1.3,2.6-3.1,4.3-3.5c1.8-0.4,2.8-0.3,2.8-0.3 c-3.3-2.3-21.1,4.5-9.1,6.5C47,71.1,77.2,63.9,71.5,60.7z" fill="#5382A1" stroke="#ffffff" stroke-width="0.7"/>
    <path d="M27.3,49.8c-13.6,3.2-7.5,6.3-3,6c1.5-0.1,2.2-0.2,2.2-0.2s-0.6,0.3-1.5,0.7c-11.2,2.9-18.3-4.8-7.3-7.4 C29.7,46.4,35.2,48.1,27.3,49.8z" fill="#5382A1" stroke="#ffffff" stroke-width="0.7"/>
    <path d="M46.6,6c0,0,7.5,7.5-7.1,19.1c-11.7,9.3-2.7,14.6,0,20.7c-6.8-6.2-11.8-11.5-8.5-16.6C35.5,22.8,50.2,17.7,46.6,6z" fill="#E76F00" stroke="#ffffff" stroke-width="0.7"/>
    <path d="M36.4,83.2c13.1,0.8,33.2-0.5,33.6-6.7c0,0-0.9,2.4-10.8,4.2c-11.2,2.1-24.9,1.8-33.1,0.5c0,0,1.7,1.4,10.3,2z" fill="#5382A1" stroke="#ffffff" stroke-width="0.7"/>
  </g>
  
  <!-- Text "NamVu" -->
  <text x="75" y="55" font-family="Arial, sans-serif" font-size="38" font-weight="bold" fill="url(#textGradient)" filter="url(#glow)">NamVu</text>
  
  <!-- Accent line under text - shortened to end at the "u" -->
  <rect x="75" y="60" width="160" height="3" rx="1.5" fill="url(#accentGradient)" opacity="0.8">
    <animate attributeName="width" values="0;160;145;160" dur="3s" begin="0s" repeatCount="indefinite" />
  </rect>
  
  <!-- Hiệu ứng lấp lánh bổ sung -->
  <circle cx="110" cy="30" r="1.5" fill="#64ffda" opacity="0.8">
    <animate attributeName="opacity" values="0.8;0.2;0.8" dur="2.5s" repeatCount="indefinite" />
  </circle>
  <circle cx="170" cy="40" r="1.5" fill="#64ffda" opacity="0.8">
    <animate attributeName="opacity" values="0.2;0.9;0.2" dur="1.8s" repeatCount="indefinite" />
  </circle>
  <circle cx="150" cy="25" r="1.5" fill="#64ffda" opacity="0.8">
    <animate attributeName="opacity" values="0.1;0.7;0.1" dur="2.2s" repeatCount="indefinite" />
  </circle>
</svg>
